HIERARCHY
ROOT Hips
{
 OFFSET 0.000000 0.000000 0.000000
 CHANNELS 6 Xposition Yposition Zposition Yrotation Xrotation Zrotation
 JOINT Chest
 {
  OFFSET 0.000000 9.588913 -0.003946
  CHANNELS 3 Yrotation Xrotation Zrotation
  JOINT Chest2
  {
   OFFSET 0.000000 9.541882 0.008053
   CHANNELS 3 Yrotation Xrotation Zrotation
   JOINT Chest3
   {
    OFFSET 0.000000 9.501360 0.000000
    CHANNELS 3 Yrotation Xrotation Zrotation
    JOINT Chest4
    {
     OFFSET 0.000000 9.491660 0.000000
     CHANNELS 3 Yrotation Xrotation Zrotation
     JOINT Neck
     {
      OFFSET 0.000000 14.331917 0.000000
      CHANNELS 3 Yrotation Xrotation Zrotation
      JOINT Head
      {
       OFFSET 0.000000 8.884799 0.017034
       CHANNELS 3 Yrotation Xrotation Zrotation
       End Site
       {
        OFFSET 0.000000 16.896195 0.008993
       }
      }
     }
     JOINT RightCollar
     {
      OFFSET -2.923010 9.499495 0.000000
      CHANNELS 3 Yrotation Xrotation Zrotation
      JOINT RightShoulder
      {
       OFFSET -13.795216 0.000000 0.000000
       CHANNELS 3 Yrotation Xrotation Zrotation
       JOINT RightElbow
       {
        OFFSET -30.272209 0.000000 0.000000
        CHANNELS 3 Yrotation Xrotation Zrotation
        JOINT RightWrist
        {
         OFFSET -24.478199 0.000000 0.000000
         CHANNELS 3 Yrotation Xrotation Zrotation
         End Site
         {
          OFFSET -18.090752 0.000000 0.000000
         }
        }
       }
      }
     }
     JOINT LeftCollar
     {
      OFFSET 2.923010 9.499495 0.000000
      CHANNELS 3 Yrotation Xrotation Zrotation
      JOINT LeftShoulder
      {
       OFFSET 13.795216 0.000000 0.000000
       CHANNELS 3 Yrotation Xrotation Zrotation
       JOINT LeftElbow
       {
        OFFSET 30.272209 0.000000 0.000000
        CHANNELS 3 Yrotation Xrotation Zrotation
        JOINT LeftWrist
        {
         OFFSET 24.478199 0.000000 0.000000
         CHANNELS 3 Yrotation Xrotation Zrotation
         End Site
         {
          OFFSET 18.090752 0.000000 0.000000
         }
        }
       }
      }
     }
    }
   }
  }
 }
 JOINT RightHip
 {
  OFFSET -7.826875 0.019532 0.001973
  CHANNELS 3 Yrotation Xrotation Zrotation
  JOINT RightKnee
  {
   OFFSET 0.000000 -40.546152 -0.001885
   CHANNELS 3 Yrotation Xrotation Zrotation
   JOINT RightAnkle
   {
    OFFSET 0.000000 -39.417092 -0.003189
    CHANNELS 3 Yrotation Xrotation Zrotation
    JOINT RightToe
    {
     OFFSET 0.000000 -7.579396 17.243563
     CHANNELS 3 Yrotation Xrotation Zrotation
     End Site
     {
      OFFSET 0.000000 -1.500329 6.694466
     }
    }
   }
  }
 }
 JOINT LeftHip
 {
  OFFSET 7.826875 0.019532 0.001973
  CHANNELS 3 Yrotation Xrotation Zrotation
  JOINT LeftKnee
  {
   OFFSET 0.000000 -40.546152 -0.001885
   CHANNELS 3 Yrotation Xrotation Zrotation
   JOINT LeftAnkle
   {
    OFFSET 0.000000 -39.417092 -0.003189
    CHANNELS 3 Yrotation Xrotation Zrotation
    JOINT LeftToe
    {
     OFFSET 0.000000 -7.579396 17.243563
     CHANNELS 3 Yrotation Xrotation Zrotation
     End Site
     {
      OFFSET 0.000000 -1.500329 6.694466
     }
    }
   }
  }
 }
}
MOTION
Frames: 13
Frame Time: 0.008333
-231.981579 84.628907 184.650455 -42.559285 -18.837766 -2.434943 2.707918 4.993209 5.314573 1.139671 2.870139 1.591496 1.437481 3.582595 1.998905 1.139674 2.870142 1.591497 -1.739316 14.408368 -4.584122 -0.794391 -10.526543 -4.465705 -7.112551 -4.144791 -3.766870 -0.812484 -16.912520 78.649086 50.874719 -39.136520 20.811845 -2.311839 -13.673032 -21.477737 -16.926718 -4.999928 0.145214 10.563661 -21.437567 -93.968504 -23.028146 -23.114891 -43.036440 -1.673981 -10.463019 29.429687 3.220763 9.338740 -7.103635 4.680329 18.446182 3.981708 -3.474895 -10.647320 9.248973 -1.361886 1.327932 -1.002185 5.077389 4.275569 17.716643 12.667929 58.661092 18.271512 5.868606 5.905813 0.699027 12.077204 -36.939608 -36.682819
-232.712190 84.783481 185.036705 -42.673819 -18.703679 -1.975559 2.860888 5.081079 4.902468 1.203908 2.817449 1.609691 1.517692 3.516389 2.021960 1.203910 2.817452 1.609693 -1.757236 14.309243 -4.523580 -0.826809 -10.632389 -4.395773 -7.095952 -4.152593 -3.852563 -0.901134 -16.774397 78.709837 50.986940 -39.206870 20.676559 -2.361167 -13.677899 -21.430783 -16.889326 -5.023041 0.130002 10.444897 -21.498058 -93.994458 -22.879743 -23.022707 -43.069051 -1.747669 -10.511696 29.419421 3.204022 9.882107 -7.247101 4.399686 18.265692 3.841345 -3.530176 -11.113345 9.034410 -1.122400 1.492027 -0.891041 5.945436 3.033952 17.193773 13.369701 59.481661 19.816970 6.785205 5.986702 0.904206 8.397407 -31.746153 -33.746556
-233.429532 84.972311 185.452729 -42.818562 -18.581700 -1.471612 2.984826 5.168980 4.476911 1.282090 2.771133 1.611158 1.615237 3.458142 2.024209 1.282092 2.771136 1.611160 -1.771381 14.210288 -4.463336 -0.855154 -10.737870 -4.327105 -7.095075 -4.170616 -3.911418 -0.990062 -16.638738 78.766215 51.065086 -39.275937 20.575849 -2.413008 -13.683986 -21.370530 -16.851146 -5.039317 0.153462 10.294518 -21.541116 -93.999293 -22.754261 -22.962500 -43.113330 -1.822244 -10.565037 29.416349 3.133205 10.443358 -7.475788 4.151369 18.039350 3.720592 -3.543532 -11.410931 8.815318 -0.870246 1.507255 -0.769480 6.959018 1.923729 16.605588 14.429849 59.860774 21.626115 7.606765 5.657619 0.563373 4.148205 -24.033001 -26.818806
-234.139991 85.187785 185.880632 -42.898875 -18.442592 -1.023288 3.009910 5.213097 4.103811 1.368915 2.735085 1.598297 1.723529 3.412744 2.008630 1.368917 2.735088 1.598298 -1.779183 14.113777 -4.409852 -0.875269 -10.840436 -4.267320 -7.114259 -4.204683 -3.937493 -1.074585 -16.507893 78.810678 51.100739 -39.342280 20.519184 -2.466932 -13.687951 -21.292913 -16.819947 -5.046430 0.210416 10.103978 -21.561041 -93.974234 -22.678831 -22.948484 -43.151535 -1.880873 -10.627661 29.417534 2.935068 10.994926 -7.718132 3.956292 17.760533 3.628354 -3.515251 -11.519861 8.590956 -0.620235 1.354970 -0.646794 8.001459 0.907419 16.022015 15.723685 59.858001 23.564163 8.200457 4.880861 -0.054115 1.299217 -16.012507 -19.421200
-234.849828 85.421839 186.304431 -43.039139 -18.279172 -0.648270 3.074700 5.184933 3.835292 1.458993 2.714422 1.574047 1.835878 3.386614 1.978887 1.458994 2.714425 1.574049 -1.780472 14.020051 -4.369539 -0.885561 -10.939589 -4.223438 -7.155188 -4.248985 -3.930008 -1.160035 -16.395929 78.841326 51.082270 -39.407454 20.523870 -2.518035 -13.694301 -21.202435 -16.803289 -5.047752 0.297110 9.862301 -21.555369 -93.910524 -22.656029 -23.007443 -43.173860 -1.916181 -10.704456 29.415738 2.741056 11.529238 -7.911333 3.831528 17.420282 3.569107 -3.433830 -11.509290 8.365049 -0.410824 1.104487 -0.540767 9.112036 -0.032829 15.500316 17.057358 59.582526 25.400313 8.558440 3.740791 -0.803278 -0.111683 -9.490448 -13.634634
-235.563129 85.669203 186.723594 -43.308075 -18.146468 -0.308805 3.257494 5.131517 3.653156 1.547262 2.712200 1.541217 1.945991 3.383591 1.938478 1.547262 2.712202 1.541219 -1.775716 13.928991 -4.348185 -0.885244 -11.035338 -4.201652 -7.216683 -4.292935 -3.892418 -1.239290 -16.316522 78.858400 51.010870 -39.480528 20.586412 -2.566585 -13.705284 -21.100638 -16.801293 -5.044530 0.412566 9.581927 -21.528652 -93.820120 -22.667208 -23.143976 -43.179656 -1.931896 -10.794427 29.405956 2.626184 12.107630 -8.066141 3.765803 17.014405 3.542137 -3.285685 -11.489602 8.143813 -0.266343 0.867174 -0.464153 10.223810 -0.843308 15.037846 18.278213 59.138824 26.896971 8.638669 2.413895 -1.503579 -0.663421 -4.627643 -9.213913
-236.275556 85.924497 187.145021 -43.593995 -18.093810 0.042577 3.452642 5.109295 3.473448 1.629921 2.728978 1.502568 2.049133 3.404382 1.890842 1.629921 2.728980 1.502569 -1.764743 13.839007 -4.347612 -0.873732 -11.129343 -4.204001 -7.291337 -4.336451 -3.831137 -1.299994 -16.269014 78.859368 50.895556 -39.569245 20.692007 -2.611181 -13.715286 -20.989422 -16.804099 -5.037451 0.556631 9.298242 -21.486805 -93.735232 -22.697959 -23.324764 -43.175499 -1.935524 -10.893976 29.396517 2.478717 12.780558 -8.259194 3.721696 16.557705 3.537527 -3.105741 -11.408583 7.912679 -0.123492 0.595212 -0.391185 11.090164 -1.478815 14.565306 19.326248 58.619009 27.908922 8.446751 1.137217 -2.002829 -0.783789 -1.306583 -5.958559
-236.985528 86.180761 187.565049 -43.831103 -18.128454 0.408711 3.596749 5.130479 3.268646 1.705044 2.764527 1.461629 2.142916 3.448695 1.840390 1.705043 2.764529 1.461629 -1.746927 13.746959 -4.365074 -0.850959 -11.224994 -4.227666 -7.369640 -4.384102 -3.754262 -1.332859 -16.245896 78.844006 50.755512 -39.664435 20.821375 -2.646131 -13.724388 -20.879526 -16.802741 -5.028495 0.723949 9.057551 -21.440244 -93.681467 -22.735756 -23.502113 -43.177922 -1.934282 -10.992520 29.401907 2.230322 13.544803 -8.506672 3.653114 16.074478 3.537264 -2.874111 -11.262767 7.673063 0.029725 0.278712 -0.319432 11.571586 -1.966215 14.050372 20.169710 58.105626 28.390449 8.129456 0.114193 -2.320231 -0.708800 0.768692 -3.602655
-237.695842 86.428836 187.965894 -44.086892 -18.200879 0.748981 3.753792 5.152120 3.091044 1.773577 2.815654 1.422934 2.228539 3.512509 1.792790 1.773576 2.815655 1.422934 -1.721906 13.650684 -4.397783 -0.817144 -11.324646 -4.269743 -7.441989 -4.431476 -3.675098 -1.335441 -16.245121 78.819038 50.617452 -39.748564 20.953022 -2.671745 -13.735817 -20.782966 -16.795387 -5.017778 0.898410 8.894965 -21.400931 -93.665496 -22.769927 -23.639330 -43.197578 -1.929715 -11.077995 29.429031 1.954273 14.335664 -8.743479 3.534769 15.588918 3.527464 -2.538278 -11.148945 7.445814 0.153164 0.000783 -0.270386 11.739439 -2.398703 13.529516 20.742307 57.654075 28.336680 7.839984 -0.651114 -2.513080 -0.563430 2.000939 -1.891618
-238.404406 86.663477 188.348991 -44.328654 -18.314719 1.082731 3.878750 5.200901 2.905020 1.839390 2.875535 1.389305 2.310831 3.587265 1.751569 1.839390 2.875536 1.389305 -1.690800 13.548518 -4.442350 -0.774210 -11.430130 -4.326350 -7.497368 -4.474837 -3.603986 -1.317144 -16.262487 78.788625 50.493067 -39.814120 21.079389 -2.685881 -13.748471 -20.703408 -16.785352 -5.005908 1.068919 8.818905 -21.374200 -93.685278 -22.806704 -23.723407 -43.228280 -1.915121 -11.145571 29.474145 1.610625 15.146665 -8.999714 3.378157 15.121399 3.504044 -2.112002 -11.053150 7.237974 0.257161 -0.260390 -0.240173 11.615056 -2.778918 12.973172 20.997953 57.266307 27.768238 7.633923 -1.162666 -2.600876 -0.411778 2.659212 -0.637929
-239.108254 86.879001 188.711877 -44.529449 -18.439617 1.408501 3.937878 5.273612 2.698313 1.906601 2.936419 1.361074 2.394909 3.663252 1.717136 1.906601 2.936419 1.361074 -1.655485 13.438801 -4.494106 -0.725171 -11.543297 -4.392035 -7.529368 -4.517531 -3.544469 -1.285524 -16.288746 78.752965 50.387307 -39.862866 21.198597 -2.684600 -13.762564 -20.640818 -16.773261 -4.998048 1.232017 8.811356 -21.360210 -93.729737 -22.855183 -23.760953 -43.258804 -1.884826 -11.189379 29.526839 1.177734 15.938080 -9.280215 3.212569 14.681093 3.470119 -1.611835 -10.998590 7.055769 0.323301 -0.484109 -0.232649 11.232653 -3.143142 12.375703 20.971146 56.899339 26.769364 7.507736 -1.428399 -2.636838 -0.275606 2.921390 0.309173
-239.808758 87.069367 189.043768 -44.788015 -18.513111 1.701142 4.030476 5.333339 2.522298 1.977679 2.990512 1.336941 2.483821 3.730722 1.687841 1.977681 2.990510 1.336941 -1.616847 13.322220 -4.547011 -0.672297 -11.663583 -4.460022 -7.538697 -4.563714 -3.494666 -1.233333 -16.315068 78.713491 50.315222 -39.904999 21.294375 -2.668918 -13.780008 -20.590484 -16.758963 -5.003465 1.383063 8.844664 -21.357075 -93.778480 -22.922891 -23.762036 -43.274712 -1.835530 -11.205505 29.564688 0.785273 16.643161 -9.515655 3.066883 14.270451 3.426595 -1.102295 -10.989574 6.892104 0.369754 -0.659335 -0.233398 10.753293 -3.564008 11.793821 20.757825 56.485321 25.477202 7.420807 -1.603609 -2.686516 -0.161401 3.043415 1.054230
-240.503798 87.232516 189.348500 -45.077760 -18.518998 1.962890 4.132292 5.383270 2.363782 2.054750 3.030756 1.314980 2.580181 3.780855 1.661248 2.054751 3.030752 1.314980 -1.575948 13.203246 -4.594769 -0.618117 -11.786481 -4.523128 -7.532267 -4.611714 -3.449075 -1.153160 -16.337303 78.667970 50.282443 -39.957241 21.355502 -2.639680 -13.799080 -20.547566 -16.748083 -5.026848 1.517871 8.900722 -21.363661 -93.813444 -23.015608 -23.732210 -43.263131 -1.762726 -11.200530 29.565486 0.437649 17.246249 -9.701461 2.962680 13.891381 3.373654 -0.623485 -11.021473 6.744274 0.392903 -0.790352 -0.237457 10.217217 -4.046942 11.234746 20.469718 55.961708 24.022498 7.312923 -1.723325 -2.782825 -0.069201 3.107433 1.653614
